<?xml version="1.0" encoding="UTF-8"?>
<!DOCTYPE svg PUBLIC "-//W3C//DTD SVG 1.1//EN" "http://www.w3.org/Graphics/SVG/1.1/DTD/svg11.dtd">
<svg xmlns="http://www.w3.org/2000/svg" version="1.1" width="170px" height="161px" style="shape-rendering:geometricPrecision; text-rendering:geometricPrecision; image-rendering:optimizeQuality; fill-rule:evenodd; clip-rule:evenodd" xmlns:xlink="http://www.w3.org/1999/xlink">
<g><path style="opacity:1" fill="#fefefe" d="M -0.5,-0.5 C 56.1667,-0.5 112.833,-0.5 169.5,-0.5C 169.5,53.1667 169.5,106.833 169.5,160.5C 112.833,160.5 56.1667,160.5 -0.5,160.5C -0.5,106.833 -0.5,53.1667 -0.5,-0.5 Z"/></g>
<g><path style="opacity:1" fill="#fc9b27" d="M 28.5,5.5 C 30.5323,6.04782 31.5323,7.38115 31.5,9.5C 30.5,9.5 29.5,9.5 28.5,9.5C 28.5,8.16667 28.5,6.83333 28.5,5.5 Z"/></g>
<g><path style="opacity:1" fill="#fdd51d" d="M 52.5,18.5 C 52.8925,20.2838 53.5592,21.9505 54.5,23.5C 53.1667,25.5 51.5,27.1667 49.5,28.5C 49.6309,27.6236 49.2975,26.9569 48.5,26.5C 44.1085,24.6446 40.1085,22.3113 36.5,19.5C 36.5904,15.6371 36.0904,11.9705 35,8.5C 37.5572,7.35434 38.8905,8.35434 39,11.5C 40.586,12.376 42.086,13.376 43.5,14.5C 44.6964,13.4406 45.363,12.1073 45.5,10.5C 44.9537,8.86529 44.6204,7.19863 44.5,5.5C 47.838,5.10905 48.838,6.27572 47.5,9C 48.8062,12.4496 50.4728,15.6163 52.5,18.5 Z"/></g>
<g><path style="opacity:1" fill="#7b59d8" d="M 25.5,41.5 C 26.5,42.1667 27.5,42.8333 28.5,43.5C 30.1667,45.8333 32.1667,47.8333 34.5,49.5C 34.6107,50.1174 34.944,50.6174 35.5,51C 22.6779,74.6575 24.0112,97.4908 39.5,119.5C 44.8063,128.468 52.473,134.468 62.5,137.5C 63.2868,138.242 63.9535,139.075 64.5,140C 89.9162,147.355 111.749,141.522 130,122.5C 131.205,119.438 132.372,116.438 133.5,113.5C 142.395,96.2286 143.895,78.2286 138,59.5C 122.992,30.7089 99.4917,19.5422 67.5,26C 64.4367,27.6482 61.4367,28.4816 58.5,28.5C 57.1363,26.8089 55.803,25.1423 54.5,23.5C 53.5592,21.9505 52.8925,20.2838 52.5,18.5C 81.0997,5.43349 107.766,8.60016 132.5,28C 153.587,48.2766 160.754,72.7766 154,101.5C 142.488,135.335 118.822,152.669 83,153.5C 51.3074,151.478 29.3074,135.811 17,106.5C 9.5136,83.4102 12.3469,61.7435 25.5,41.5 Z"/></g>
<g><path style="opacity:1" fill="#fd9f31" d="M 15.5,13.5 C 16.5,13.5 17.5,13.5 18.5,13.5C 18.6567,14.8734 18.49,16.2068 18,17.5C 16.2942,16.6921 15.4609,15.3588 15.5,13.5 Z"/></g>
<g><path style="opacity:1" fill="#fde153" d="M 36.5,19.5 C 40.1085,22.3113 44.1085,24.6446 48.5,26.5C 49.2975,26.9569 49.6309,27.6236 49.5,28.5C 44.5,32.5 39.5,36.5 34.5,40.5C 33.6615,38.2186 32.6615,35.8852 31.5,33.5C 28.9135,32.52 26.2469,32.1866 23.5,32.5C 21.8151,28.8518 19.8151,25.5185 17.5,22.5C 19.7834,22.6079 21.7834,23.4412 23.5,25C 25.5787,25.8077 27.5787,25.641 29.5,24.5C 28.3906,22.6147 27.5573,20.6147 27,18.5C 25.9887,17.6634 24.8221,17.33 23.5,17.5C 23.5,15.8333 23.5,14.1667 23.5,12.5C 25.1667,12.5 26.8333,12.5 28.5,12.5C 29.4051,16.6491 32.0718,18.9824 36.5,19.5 Z"/></g>
<g><path style="opacity:1" fill="#f7980d" d="M 54.5,23.5 C 55.803,25.1423 57.1363,26.8089 58.5,28.5C 49.9077,34.7547 41.9077,41.7547 34.5,49.5C 32.1667,47.8333 30.1667,45.8333 28.5,43.5C 31.3126,43.9754 33.3126,42.9754 34.5,40.5C 39.5,36.5 44.5,32.5 49.5,28.5C 51.5,27.1667 53.1667,25.5 54.5,23.5 Z"/></g>
<g><path style="opacity:1" fill="#659ca3" d="M 133.5,113.5 C 115.12,137.125 91.4534,144.625 62.5,136C 53.8391,131.832 46.1724,126.332 39.5,119.5C 24.0112,97.4908 22.6779,74.6575 35.5,51C 34.944,50.6174 34.6107,50.1174 34.5,49.5C 41.9077,41.7547 49.9077,34.7547 58.5,28.5C 61.4367,28.4816 64.4367,27.6482 67.5,26C 99.4917,19.5422 122.992,30.7089 138,59.5C 143.895,78.2286 142.395,96.2286 133.5,113.5 Z"/></g>
<g><path style="opacity:1" fill="#8f5aa7" d="M 34.5,24.5 C 36.1172,25.038 37.7839,25.3713 39.5,25.5C 39.5,27.1667 39.5,28.8333 39.5,30.5C 35.0917,30.938 33.4251,28.938 34.5,24.5 Z"/></g>
<g><path style="opacity:1" fill="#fcd110" d="M 23.5,32.5 C 26.2469,32.1866 28.9135,32.52 31.5,33.5C 32.6615,35.8852 33.6615,38.2186 34.5,40.5C 33.3126,42.9754 31.3126,43.9754 28.5,43.5C 27.5,42.8333 26.5,42.1667 25.5,41.5C 22.6806,39.5812 20.014,37.4145 17.5,35C 16.451,34.5078 15.451,34.6744 14.5,35.5C 13.5713,34.3112 13.238,32.9778 13.5,31.5C 15.7468,31.9153 17.9135,32.5819 20,33.5C 21.2559,33.3517 22.4226,33.0184 23.5,32.5 Z"/></g>
<g><path style="opacity:1" fill="#613111" d="M 118.5,79.5 C 116.782,83.8002 115.782,88.4669 115.5,93.5C 110.027,113.253 97.0274,121.42 76.5,118C 65.1036,114.103 58.1036,106.27 55.5,94.5C 54.9937,89.3455 54.327,84.3455 53.5,79.5C 49.6549,79.1518 47.6549,76.9851 47.5,73C 48.1782,70.4761 49.5115,68.3095 51.5,66.5C 50.5229,61.9494 52.5229,59.4494 57.5,59C 56.4464,57.6124 56.2797,56.1124 57,54.5C 62.8591,52.9906 68.3591,50.4906 73.5,47C 87.3088,42.6956 99.4754,45.529 110,55.5C 114.466,61.9398 117.966,68.7731 120.5,76C 120.613,77.6991 119.947,78.8658 118.5,79.5 Z"/></g>
<g><path style="opacity:1" fill="#f1b584" d="M 61.5,80.5 C 62.8355,84.8165 64.3355,89.1499 66,93.5C 75.4794,97.843 81.3128,94.843 83.5,84.5C 84.325,83.6143 85.325,83.281 86.5,83.5C 86.6028,88.7297 88.9361,92.3964 93.5,94.5C 90.2114,91.5933 88.2114,87.9267 87.5,83.5C 87.9308,81.2339 89.2642,79.7339 91.5,79C 86.3957,79.963 81.3957,79.463 76.5,77.5C 83.9127,74.6085 90.746,70.6085 97,65.5C 101.011,69.0095 105.178,72.3428 109.5,75.5C 110.885,82.5574 110.718,89.5574 109,96.5C 107.213,98.9576 104.879,100.624 102,101.5C 100.477,99.6461 98.6438,98.1461 96.5,97C 89.1667,96.3333 81.8333,96.3333 74.5,97C 72.3562,98.1461 70.5228,99.6461 69,101.5C 64.987,100.154 62.3203,97.487 61,93.5C 60.1864,88.9796 60.353,84.6463 61.5,80.5 Z"/></g>
<g><path style="opacity:1" fill="#1a1510" d="M 76.5,77.5 C 81.3957,79.463 86.3957,79.963 91.5,79C 89.2642,79.7339 87.9308,81.2339 87.5,83.5C 88.2114,87.9267 90.2114,91.5933 93.5,94.5C 88.9361,92.3964 86.6028,88.7297 86.5,83.5C 85.325,83.281 84.325,83.6143 83.5,84.5C 81.3128,94.843 75.4794,97.843 66,93.5C 64.3355,89.1499 62.8355,84.8165 61.5,80.5C 62.2297,78.955 63.563,78.1216 65.5,78C 69.1516,77.5014 72.8183,77.3347 76.5,77.5 Z"/></g>
<g><path style="opacity:1" fill="#f6b988" d="M 67.5,78.5 C 70.5184,78.3354 73.5184,78.502 76.5,79C 80.914,79.7479 82.414,82.2479 81,86.5C 78.6685,93.9439 74.0018,95.9439 67,92.5C 63.7971,87.5116 63.9638,82.845 67.5,78.5 Z"/></g>
<g><path style="opacity:1" fill="#f0a977" d="M 53.5,79.5 C 54.327,84.3455 54.9937,89.3455 55.5,94.5C 48.5858,90.2736 47.9191,85.2736 53.5,79.5 Z"/></g>
<g><path style="opacity:1" fill="#f9ac77" d="M 118.5,79.5 C 120.384,82.9007 120.884,86.5674 120,90.5C 119.082,92.3757 117.582,93.3757 115.5,93.5C 115.782,88.4669 116.782,83.8002 118.5,79.5 Z"/></g>
<g><path style="opacity:1" fill="#542a15" d="M 70.5,82.5 C 75.0001,82.1638 76.8334,84.1638 76,88.5C 73.6667,91.1667 71.3333,91.1667 69,88.5C 68.2516,86.1599 68.7516,84.1599 70.5,82.5 Z"/></g>
<g><path style="opacity:1" fill="#4d2411" d="M 96.5,82.5 C 101.068,82.0826 102.568,84.0826 101,88.5C 99.112,90.9223 97.112,90.9223 95,88.5C 94.2516,86.1599 94.7516,84.1599 96.5,82.5 Z"/></g>
<g><path style="opacity:1" fill="#292019" d="M 93.5,94.5 C 100.935,95.4011 104.601,92.0678 104.5,84.5C 104.449,82.9002 104.116,81.4002 103.5,80C 100.289,78.8468 96.9555,78.1802 93.5,78C 98.2387,77.2738 102.905,77.6071 107.5,79C 108.022,79.5613 108.355,80.228 108.5,81C 106.545,84.1981 105.378,87.6981 105,91.5C 101.844,95.4482 98.0104,96.4482 93.5,94.5 Z"/></g>
<g><path style="opacity:1" fill="#fcfbfa" d="M 77.5,100.5 C 82.8333,100.5 88.1667,100.5 93.5,100.5C 92.6458,105.03 89.8125,107.03 85,106.5C 80.5414,106.87 78.0414,104.87 77.5,100.5 Z"/></g>
<g><path style="opacity:1" fill="#6449ad" d="M 133.5,113.5 C 132.372,116.438 131.205,119.438 130,122.5C 111.749,141.522 89.9162,147.355 64.5,140C 63.9535,139.075 63.2868,138.242 62.5,137.5C 52.473,134.468 44.8063,128.468 39.5,119.5C 46.1724,126.332 53.8391,131.832 62.5,136C 91.4534,144.625 115.12,137.125 133.5,113.5 Z"/></g>
</svg>
